# xmcd
#
# Track frame offsets:
#	150
#	24817
#	49357
#	81552
#	106947
#	126837
#	152572
#	174559
#	197385
#	218872
#
# Disc length: 3172 seconds
#
# Revision: 110884365
# Processed by: cddbd v1.5.1PL0 Copyright (c) Steve Scherf et al.
# Submitted via: EasyCDDAExtractor 8.0.2.1
#
DISCID=7f0c620a
DTITLE=One Way - Cutie Pie
DYEAR=1989
DGENRE=R&B
TTITLE0=Cutie Pie
TTITLE1=Lady You Are
TTITLE2=You Can Do It
TTITLE3=Wild Night
TTITLE4=Don't Fight The Feeling
TTITLE5=Don't Think About It
TTITLE6=Dynomite
TTITLE7=If I Knew
TTITLE8=Mr. Groove
TTITLE9=You Better Quit
EXTD=
EXTT0=
EXTT1=
EXTT2=
EXTT3=
EXTT4=
EXTT5=
EXTT6=
EXTT7=
EXTT8=
EXTT9=
PLAYORDER=
